# xmcd
#
# Track frame offsets:
#	150
#	13122
#	31877
#	54158
#	72685
#	84776
#	106311
#	120362
#	143142
#	165709
#	197838
#	219952
#	239525
#	259214
#	275210
#	292312
#	308767
#	322086
#
# Disc length: 4542 seconds
#
# Revision: 1
# Processed by: cddbd v1.5.2PL0 Copyright (c) Steve Scherf et al.
# Submitted via: audiograbber 1.83.01
#
DISCID=0f11bc12
DTITLE=Eric Clapton - Complete Eric Clapton [CD1)
DYEAR=2007
DGENRE=Blues
TTITLE0=I Feel Free
TTITLE1=Sunshine of Your Love
TTITLE2=White Room
TTITLE3=Crossroads
TTITLE4=Badge
TTITLE5=Presence of the Lord
TTITLE6=After Midnight
TTITLE7=Let It Rain
TTITLE8=Bell Bottom Blues
TTITLE9=Layla
TTITLE10=Let It Grow
TTITLE11=I Shot The Sheriff
TTITLE12=Knockin' On Heavens Door
TTITLE13=Hello Old Friend
TTITLE14=Lay Down Sally
TTITLE15=Wonderful Night
TTITLE16=Promises
TTITLE17=I Can't Stand It
EXTD=Also with Cream, Free, Derek and the Dominoes and Blind Faith
EXTT0=
EXTT1=
EXTT2=
EXTT3=
EXTT4=
EXTT5=
EXTT6=
EXTT7=
EXTT8=
EXTT9=
EXTT10=
EXTT11=
EXTT12=
EXTT13=
EXTT14=
EXTT15=
EXTT16=
EXTT17=
PLAYORDER=
